<svg version="1.2" xmlns="http://www.w3.org/2000/svg" viewBox="0 0 330 330" width="330" height="330">
	<title>A Logo-ai</title>
	<defs>
		<linearGradient id="g1" x2="1" gradientUnits="userSpaceOnUse" gradientTransform="matrix(167.296,284.404,-261.979,154.105,200.098,-62.773)">
			<stop offset="0" stop-color="#00adee"/>
			<stop offset="1" stop-color="#2e3092"/>
		</linearGradient>
	</defs>
	<style>
		.s0 { fill: url(#g1) } 
	</style>
	<g id="Layer 1">
		<g id="&lt;Group&gt;">
			<path id="&lt;Path&gt;" class="s0" d="m242.5 166l14.1 24.7c6.7 11.5 16.1 23 12.5 37.1-3 11.9-14.3 21.3-26.5 22.1-7.2 0.5-13.7-2.1-19.4-6.3q-7.4-5.4-14.8-10.8c-9-6.6-24.2-1.8-29.2 7.7-6.8 12.9 0.3 23.6 10.6 31.4 15.1 11.4 30.7 20.4 50.1 20.8 26.5 0.6 53.3-15.7 65-39.6 10.9-22.5 9.9-47.3-2.5-69-4.8-8.4-9.7-16.7-14.5-25-20.5-35.8-41.1-71.4-61.8-107.1-14.4-24.3-41.2-36.1-68.8-31.9-20.2 3.1-36.7 16.3-46.7 33.6-5.4 9.4-10.8 18.7-16.2 28q-24.6 42.6-49.2 85.2c-4 7.1-8.5 14-12.1 21.3-13.5 27.7-9.1 63.6 15.5 83.8 18.8 15.5 45.3 21.4 68.6 12.6 16.7-6.4 29-17.8 38-33.1q34.6-58.5 69.1-117l-24.5-42.5q-35.5 60.1-71 120.2c-3.9 6.6-7.8 13.3-11.8 20-2.6 4.3-6.1 8.2-10.5 10.7-5.3 2.9-11.4 3.5-17.3 2.6-4.3-0.7-8.9-2.7-12.3-5.5-4.8-3.9-7.9-9.7-8.7-15.8-1.2-8.8 2.5-15.9 6.7-23.2 24.6-42.5 48.5-85.4 73.6-127.5 4.4-7.2 11.9-12 20.5-12 4.9 0 9.8 1.6 13.8 4.5 4.9 3.6 7.2 8.9 10.1 14z"/>
		</g>
	</g>
</svg>